<mxfile host="65bd71144e">
    <diagram id="m-SDdz0j1uD5yqdaoeTx" name="Seite-1">
        <mxGraphModel dx="709" dy="726" grid="1" gridSize="10" guides="1" tooltips="1" connect="1" arrows="1" fold="1" page="1" pageScale="1" pageWidth="827" pageHeight="1169" math="0" shadow="0">
            <root>
                <mxCell id="0"/>
                <mxCell id="1" parent="0"/>
                <mxCell id="2" value="" style="rounded=0;whiteSpace=wrap;html=1;" vertex="1" parent="1">
                    <mxGeometry x="120" y="120" width="520" height="360" as="geometry"/>
                </mxCell>
                <mxCell id="3" value="Navbar" style="rounded=0;whiteSpace=wrap;html=1;" vertex="1" parent="1">
                    <mxGeometry x="120" y="120" width="520" height="40" as="geometry"/>
                </mxCell>
                <mxCell id="4" value="Footer" style="rounded=0;whiteSpace=wrap;html=1;" vertex="1" parent="1">
                    <mxGeometry x="120" y="440" width="520" height="40" as="geometry"/>
                </mxCell>
                <mxCell id="6" value="Map" style="rounded=1;whiteSpace=wrap;html=1;" vertex="1" parent="1">
                    <mxGeometry x="130" y="170" width="340" height="260" as="geometry"/>
                </mxCell>
                <mxCell id="7" value="Information Panel" style="rounded=0;whiteSpace=wrap;html=1;" vertex="1" parent="1">
                    <mxGeometry x="480" y="170" width="150" height="260" as="geometry"/>
                </mxCell>
            </root>
        </mxGraphModel>
    </diagram>
</mxfile>